<?xml version="1.0" standalone="no"?>
<!DOCTYPE svg PUBLIC "-//W3C//DTD SVG 20010904//EN"
 "http://www.w3.org/TR/2001/REC-SVG-20010904/DTD/svg10.dtd">
<svg version="1.0" xmlns="http://www.w3.org/2000/svg"
 width="273.000000pt" height="273.000000pt" viewBox="0 0 273.000000 273.000000"
 preserveAspectRatio="xMidYMid meet">
<metadata>
Created by potrace 1.14, written by Peter Selinger 2001-2017
</metadata>
<g transform="translate(0.000000,273.000000) scale(0.100000,-0.100000)"
fill="#000000" stroke="none">
<path d="M1746 1744 c-15 -14 -25 -28 -22 -31 3 -4 23 -27 44 -51 20 -25 47
-54 60 -65 l22 -21 -37 -33 c-21 -19 -57 -50 -81 -70 l-42 -35 29 -30 29 -30
72 68 c74 71 90 83 90 65 0 -5 26 -37 58 -69 l57 -60 32 32 32 31 -47 50 c-83
88 -83 76 -3 153 39 37 71 72 71 76 0 4 -9 16 -20 28 l-19 21 -47 -39 c-25
-21 -62 -52 -81 -68 l-35 -29 -62 66 c-35 37 -65 67 -67 67 -2 0 -17 -12 -33
-26z"/>
<path d="M1950 1714 c0 -8 5 -12 10 -9 6 3 10 10 10 16 0 5 -4 9 -10 9 -5 0
-10 -7 -10 -16z"/>
<path d="M2136 1722 c-15 -14 -3 -21 29 -17 40 5 39 6 23 -47 -9 -29 -15 -37
-27 -32 -9 3 -24 9 -34 11 -14 4 -17 12 -12 37 l5 31 -17 -24 c-28 -38 -66
-162 -54 -174 7 -7 16 10 28 52 19 63 32 73 65 47 14 -10 16 -19 8 -42 -17
-54 -36 -104 -43 -110 -4 -4 -7 -11 -7 -15 0 -9 240 -4 265 6 23 10 74 61 93
93 27 49 5 149 -40 173 -23 13 -271 23 -282 11z m158 -35 c-4 -12 -11 -33 -16
-47 -5 -14 -8 -25 -6 -26 2 0 -2 -7 -8 -15 -6 -8 -19 -40 -29 -72 -19 -62 -24
-68 -61 -72 -33 -3 -38 8 -21 47 23 52 36 96 30 102 -4 3 -2 6 4 6 6 0 14 11
17 25 16 64 23 73 61 73 32 0 35 -2 29 -21z m86 13 c18 -10 18 -11 1 -53 -19
-44 -29 -72 -32 -85 -1 -4 -10 -24 -20 -44 -11 -21 -16 -38 -12 -38 21 0 -18
-20 -45 -24 -42 -4 -41 5 3 118 19 49 35 97 35 107 0 27 37 37 70 19z m55 -34
c10 -9 13 -32 11 -71 -3 -52 -7 -61 -45 -96 -22 -22 -48 -39 -56 -39 -13 0
-13 5 1 38 9 20 18 46 21 57 3 11 12 35 20 54 8 18 17 41 18 50 2 9 4 17 4 19
2 6 14 1 26 -12z"/>
<path d="M1880 1700 c0 -11 5 -20 10 -20 6 0 10 7 10 16 0 8 4 13 9 9 5 -3 12
-1 16 5 4 6 -5 10 -19 10 -19 0 -26 -5 -26 -20z"/>
<path d="M1050 1690 c-17 -10 -22 -8 80 -35 36 -10 85 -24 110 -33 25 -8 78
-15 118 -16 65 -1 75 -4 92 -26 12 -16 17 -37 16 -62 l-3 -38 73 0 c41 0 74
-4 74 -8 0 -5 6 -9 13 -10 6 0 24 -3 38 -6 21 -5 37 5 94 58 l69 65 -59 55
c-44 41 -68 56 -90 57 -46 2 -409 0 -506 -2 -47 -1 -90 1 -96 4 -5 3 -15 2
-23 -3z"/>
<path d="M735 1679 c-96 -19 -158 -36 -190 -51 -24 -11 -24 -13 -20 -127 3
-95 10 -279 19 -531 1 -31 6 -38 51 -62 90 -49 192 -68 385 -72 129 -3 136 -1
115 30 -15 24 -20 54 -13 86 6 24 41 68 50 62 4 -3 8 2 8 10 0 9 -5 16 -10 16
-17 0 -50 63 -50 95 0 19 11 44 31 68 l31 38 -26 26 c-14 14 -26 34 -26 43 0
23 -18 37 -55 43 -16 3 -35 6 -42 8 -14 5 -14 -8 0 -41 16 -39 13 -122 -5
-161 -16 -33 -58 -80 -58 -65 0 8 43 89 51 96 21 19 -17 190 -43 190 -4 0 -8
7 -8 15 0 14 3 14 24 0 13 -9 28 -15 32 -13 5 1 33 -4 62 -11 50 -12 146 -11
210 4 12 3 31 7 41 9 27 6 92 49 120 80 27 29 31 80 7 104 -9 10 -37 16 -78
17 -56 1 -187 34 -328 82 -51 17 -224 24 -285 12z"/>
<path d="M246 1590 c2 -41 6 -145 8 -230 3 -85 6 -155 6 -155 1 0 2 -27 3 -60
2 -54 4 -60 25 -61 12 -1 29 -2 37 -3 9 0 27 -12 40 -26 52 -51 19 -132 -56
-138 -19 -1 -33 -6 -31 -10 1 -4 2 -12 2 -17 0 -7 42 -10 118 -8 l117 3 -1 40
c-1 22 -4 117 -8 210 -3 94 -8 231 -12 305 -4 74 -7 152 -8 172 -1 21 -5 41
-10 45 -4 4 -59 8 -121 8 l-113 0 4 -75z"/>
<path d="M1862 1468 c-26 -26 -13 -38 39 -38 36 0 49 4 46 13 -2 6 -17 12 -33
12 -16 0 -31 5 -34 13 -4 10 -8 10 -18 0z"/>
<path d="M1416 1429 c-27 -26 -125 -72 -158 -73 -15 -1 -28 -4 -28 -8 0 -4 -8
-7 -17 -6 -10 1 -37 0 -60 0 -51 -2 -55 -18 -17 -59 l26 -28 161 0 c200 0 281
7 301 28 44 44 43 126 -2 148 -15 7 -63 13 -107 14 -65 2 -83 -1 -99 -16z"/>
<path d="M1151 1209 c-32 -19 -51 -52 -45 -79 1 -8 3 -20 3 -27 1 -7 13 -24
29 -38 l27 -26 200 4 c171 3 205 6 231 21 37 22 53 60 42 101 -14 54 -33 59
-254 61 -184 2 -204 1 -233 -17z"/>
<path d="M280 1060 c-13 -8 -10 -95 4 -118 18 -29 86 16 86 57 -1 25 -17 56
-32 59 -5 1 -9 2 -10 3 -19 6 -38 5 -48 -1z"/>
<path d="M1158 1007 c-49 -18 -72 -97 -39 -136 10 -11 29 -24 42 -29 34 -11
379 -7 410 6 61 24 77 98 30 141 l-29 26 -196 0 c-107 0 -206 -3 -218 -8z"/>
</g>
</svg>
